<?xml version="1.0" encoding="windows-1252"?>
<!-- Generator: Adobe Illustrator 19.0.0, SVG Export Plug-In . SVG Version: 6.00 Build 0)  -->
<svg version="1.1" id="Capa_1" xmlns="http://www.w3.org/2000/svg" xmlns:xlink="http://www.w3.org/1999/xlink" x="0px" y="0px" viewBox="0 0 512 512" style="enable-background:new 0 0 512 512;" xml:space="preserve">
<path style="fill:#11A892;" d="M435.049,161.771l-11.29,3.89c-1.6,0.56-23.59,7.94-52.25,7.94c-22.57,0-49.29-4.58-73.44-20.68  c-51.98-34.66-59.77-107.5-60.07-110.59l-1.21-12.15l11.66-3.64c2.94-0.93,72.73-22.15,125.28,12.88  c51.42,34.28,59.73,107.38,60.06,110.48L435.049,161.771z"/>
<path style="fill:#0F9887;" d="M435.049,161.771l-11.29,3.89c-1.6,0.56-23.59,7.94-52.25,7.94c-22.57,0-49.29-4.58-73.44-20.68  c-51.98-34.66-59.77-107.5-60.07-110.59l-1.21-12.15L435.049,161.771z"/>
<rect x="236.01" style="fill:#11A892;" width="30" height="96.46"/>
<rect x="251.01" style="fill:#0F9887;" width="15" height="96.46"/>
<polygon style="fill:#C27B48;" points="303.129,491.59 278.419,508.6 266.009,490.58 266.009,512 236.009,512 236.009,490.57   223.599,508.6 198.889,491.59 218.649,462.88 236.009,474.84 236.009,473.59 266.009,473.59 266.009,474.84 283.369,462.88 "/>
<polygon style="fill:#A66235;" points="303.129,491.59 278.419,508.6 266.009,490.58 266.009,512 251.009,512 251.009,473.59   266.009,473.59 266.009,474.84 283.369,462.88 "/>
<path style="fill:#BDF052;" d="M415.769,358.77c-14.16,45.72-46.88,82.67-94.62,106.86c-35.45,17.96-66.68,22.62-67.99,22.81  l-2.15,0.31l-2.14-0.31c-1.32-0.19-32.55-4.85-68-22.81c-47.74-24.19-80.46-61.14-94.62-106.86  c-15.53-50.15-11.43-105.04,10.99-146.82c10.04-18.72,23.36-34.61,36.25-49.98c13.36-15.93,25.98-30.97,34.62-48.4  c13.31-26.85,31.57-34.32,44.54-35.86c15.27-1.81,26.19,4.81,33.42,9.18c1.93,1.17,4.08,1.4,4.1,1.4l0.84-0.04l0.47-0.03l0.21,0.04  c0.68-0.05,2.48-0.29,4.26-1.37c7.23-4.37,18.15-10.99,33.42-9.18c12.97,1.54,31.23,9.01,44.54,35.86  c8.64,17.43,21.26,32.47,34.62,48.4c12.89,15.37,26.21,31.26,36.25,49.98C427.199,253.73,431.299,308.62,415.769,358.77z"/>
<path style="fill:#92D700;" d="M415.769,358.77c-14.16,45.72-46.88,82.67-94.62,106.86c-35.45,17.96-66.68,22.62-67.99,22.81  l-2.15,0.31V88.25l0.47-0.03l0.21,0.04c0.68-0.05,2.48-0.29,4.26-1.37c7.23-4.37,18.15-10.99,33.42-9.18  c12.97,1.54,31.23,9.01,44.54,35.86c8.64,17.43,21.26,32.47,34.62,48.4c12.89,15.37,26.21,31.26,36.25,49.98  C427.199,253.73,431.299,308.62,415.769,358.77z"/>
<g>
</g>
<g>
</g>
<g>
</g>
<g>
</g>
<g>
</g>
<g>
</g>
<g>
</g>
<g>
</g>
<g>
</g>
<g>
</g>
<g>
</g>
<g>
</g>
<g>
</g>
<g>
</g>
<g>
</g>
</svg>